<?xml version="1.0" standalone="no"?><!DOCTYPE svg PUBLIC "-//W3C//DTD SVG 1.1//EN" "http://www.w3.org/Graphics/SVG/1.1/DTD/svg11.dtd"><svg t="1574573511981" class="icon" viewBox="0 0 1024 1024" version="1.1" xmlns="http://www.w3.org/2000/svg" p-id="3929" xmlns:xlink="http://www.w3.org/1999/xlink" width="128" height="128"><defs><style type="text/css"></style></defs><path d="M959.1 376.4c-3.4-68.6-32-132.6-80.5-180.5-52.2-51.4-121.3-79.7-194.8-79.7h-0.5c-62.9 0.1-122.7 21-171.2 59.3-48.6-38.3-108.3-59.2-171.2-59.3h-0.5c-73.5 0-142.7 28.3-194.8 79.7-52 51.2-80.7 120-80.8 193.7-0.1 36.1 6.8 71.4 20.3 104.7 14 34.6 34.6 65.5 61.2 91.9l294.3 292.1c19.1 19 44.6 29.4 71.6 29.4 27.1 0 52.5-10.5 71.6-29.4l23.7-23.5c13.2-13.1 13.2-34.3 0-47.4-13.2-13.1-34.6-13.1-47.7 0l-23.7 23.5c-6.4 6.3-14.9 9.8-23.9 9.8-9 0-17.5-3.5-23.9-9.8L193.8 538.8c-39.9-39.6-61.8-92.5-61.7-149.1 0.1-55.7 21.7-107.7 60.9-146.3 81.5-80.3 213.9-80.1 295.1 0.5l23.9 23.7 23.9-23.7c81.2-80.6 213.6-80.9 295.1-0.5 74.5 73.4 81.1 195.4 15.1 277.7-11.6 14.5-9.2 35.6 5.4 47.1s35.8 9.1 47.4-5.3c42.1-52.5 63.5-118.8 60.2-186.5zM847.5 653.1h-84.4v-83.8c0-17.3-14.2-31.4-31.7-31.4s-31.6 14.1-31.6 31.4v83.8h-84.4c-17.5 0-31.7 14.1-31.7 31.4 0 17.4 14.2 31.4 31.7 31.4h84.4v83.8c0 17.4 14.2 31.4 31.6 31.4 17.5 0 31.7-14.1 31.7-31.4V716h84.4c17.5 0 31.7-14.1 31.7-31.4-0.1-17.4-14.2-31.5-31.7-31.5z" fill="#d81e06" p-id="3930"></path></svg>