<?xml version="1.0" standalone="no"?><!DOCTYPE svg PUBLIC "-//W3C//DTD SVG 1.1//EN" "http://www.w3.org/Graphics/SVG/1.1/DTD/svg11.dtd"><svg t="1583561282253" class="icon" viewBox="0 0 1264 1024" version="1.1" xmlns="http://www.w3.org/2000/svg" p-id="52549" xmlns:xlink="http://www.w3.org/1999/xlink" width="158" height="128"><defs><style type="text/css"></style></defs><path d="M674.30935 1024V489.190246a1035.750849 1035.750849 0 0 0 148.864571 16.540508 435.566707 435.566707 0 0 0 333.96073-122.872344A463.921863 463.921863 0 0 0 1261.891201 37.870674V11.090804l-33.868659-4.725859A777.403869 777.403869 0 0 0 1127.204209 0.063799a675.797893 675.797893 0 0 0-269.373986 51.984453 427.690275 427.690275 0 0 0-195.335521 226.841251c-8.664076 19.691081-16.540508 37.806875-23.629297 55.135026A484.400587 484.400587 0 0 0 595.545027 236.356769 393.821616 393.821616 0 0 0 466.371537 100.882133 621.45051 621.45051 0 0 0 131.623164 0.063799 409.57448 409.57448 0 0 0 31.592474 11.878448L5.600247 18.179593 1.662031 43.384177a615.937007 615.937007 0 0 0 8.664075 157.528646 541.1109 541.1109 0 0 0 47.258594 137.049922A393.821616 393.821616 0 0 0 159.190677 472.649738a630.114585 630.114585 0 0 0 197.698451 107.119479 430.840848 430.840848 0 0 0 148.864571 31.50573 595.458283 595.458283 0 0 0 84.277826 0V1024z m-157.528646-489.126447a485.975874 485.975874 0 0 1-305.605574-118.934128 331.5978 331.5978 0 0 1-85.065469-107.907122 485.975874 485.975874 0 0 1-39.382161-119.721772A664.770887 664.770887 0 0 1 80.426354 78.828122a472.585939 472.585939 0 0 1 54.347383 0 551.350262 551.350262 0 0 1 289.852709 78.764323 315.057293 315.057293 0 0 1 103.968907 111.845339 449.744285 449.744285 0 0 1 49.621523 129.17349A618.299937 618.299937 0 0 1 592.394454 527.784764a384.369897 384.369897 0 0 1-73.25082 7.088789m580.493061-199.273737a362.315886 362.315886 0 0 1-276.462774 98.455404 844.353544 844.353544 0 0 1-135.474636-11.814649 834.901825 834.901825 0 0 1 44.895665-114.995912 371.767605 371.767605 0 0 1 157.528646-190.609662 611.211148 611.211148 0 0 1 236.292969-44.895664h58.285599a376.493465 376.493465 0 0 1-85.853112 261.497553" p-id="52550" fill="#2c2c2c"></path></svg>