<?xml version="1.0" standalone="no"?><!DOCTYPE svg PUBLIC "-//W3C//DTD SVG 1.1//EN" "http://www.w3.org/Graphics/SVG/1.1/DTD/svg11.dtd"><svg t="1582953395604" class="icon" viewBox="0 0 1024 1024" version="1.1" xmlns="http://www.w3.org/2000/svg" p-id="47923" xmlns:xlink="http://www.w3.org/1999/xlink" width="128" height="128"><defs><style type="text/css"></style></defs><path d="M868.879572 225.620597 687.751305 225.620597l0-45.825698c0-50.052976-40.751123-90.76419-90.76419-90.76419L428.019819 89.030709c-50.013067 0-90.765213 40.711214-90.765213 90.76419l0 45.825698L153.550677 225.620597c-49.369408 0-89.475847 40.831964-89.475847 91.007737l0 526.712073c0 50.173726 40.107463 91.006713 89.475847 91.006713l715.328895 0c49.368384 0 89.475847-40.831964 89.475847-91.006713L958.355419 316.627311C958.355419 266.452561 918.247956 225.620597 868.879572 225.620597zM378.490775 224.332255l0-44.537356c0-27.301809 22.228257-49.530067 49.529043-49.530067l168.966273 0c27.302833 0 49.530067 22.229281 49.530067 49.530067l0 44.537356c-0.88516 0.412392-3.054569 0.860601-4.202719 1.288343L382.693494 225.620597C381.544321 225.192855 379.375935 224.744647 378.490775 224.332255zM153.550677 266.856767l222.472907 0c25.254174 7.776104 66.543555 13.610996 136.479371 13.610996 69.937862 0 111.227244-5.834892 136.480394-13.610996l219.896222 0c26.577309 0 48.241724 22.308075 48.241724 49.771567l0 153.825434L563.518862 470.453768c-15.608489-4.490268-32.889061-7.368828-52.303226-7.368828-19.414165 0-36.693714 2.87856-52.30425 7.368828L105.308953 470.453768 105.308953 316.627311C105.308953 289.164842 126.973368 266.856767 153.550677 266.856767zM589.818855 541.323862c0 43.329854-35.274388 78.605266-78.603219 78.605266-43.328831 0-78.603219-35.276435-78.603219-78.605266 0-13.525038 14.240329-23.363104 33.275871-29.635971l90.654696 0C575.579549 517.960759 589.818855 527.799848 589.818855 541.323862zM868.879572 893.110951 153.550677 893.110951c-26.577309 0-48.241724-22.309098-48.241724-49.771567L105.308953 511.687892l294.306956 0c-5.037736 9.024537-8.239662 18.85544-8.239662 29.635971 0 66.081021 53.7993 119.839389 119.838366 119.839389 66.040089 0 119.839389-53.758368 119.839389-119.839389 0-10.780531-3.201925-20.611433-8.241708-29.635971l294.306956 0 0 331.651492C917.120272 870.801852 895.455857 893.110951 868.879572 893.110951z" p-id="47924" fill="#bfbfbf"></path></svg>