<?xml version="1.0" standalone="no"?><!DOCTYPE svg PUBLIC "-//W3C//DTD SVG 1.1//EN" "http://www.w3.org/Graphics/SVG/1.1/DTD/svg11.dtd"><svg class="icon" width="200px" height="180.12px" viewBox="0 0 1137 1024" version="1.1" xmlns="http://www.w3.org/2000/svg"><path d="M1128.220444 837.063111a29.673244 29.673244 0 0 0-42.052266 0l-67.720534 67.720533V559.786667a29.741511 29.741511 0 0 0-59.505777 0v344.8832l-67.697778-67.720534a29.673244 29.673244 0 0 0-42.075022 0 29.673244 29.673244 0 0 0 0 42.097778l117.873777 117.873778c0.113778 0.113778 0.227556 0.113778 0.341334 0.227555a29.422933 29.422933 0 0 0 42.621155 0c0.113778-0.113778 0.227556-0.113778 0.341334-0.227555l117.873777-117.782756a29.673244 29.673244 0 0 0 0-42.075022z" fill="#333333" /><path d="M774.371556 833.627022H524.242489l-209.009778-493.954844-255.431111 107.997866V83.467378c0-13.198222 10.672356-23.847822 23.870578-23.847822h869.376a23.893333 23.893333 0 0 1 23.870578 23.847822v369.208889a29.741511 29.741511 0 0 0 59.483022 0V59.619556A59.505778 59.505778 0 0 0 976.941511 0.113778H59.824356A59.505778 59.505778 0 0 0 0.341333 59.619556v774.007466a59.505778 59.505778 0 0 0 59.483023 59.505778h714.524444a29.741511 29.741511 0 0 0 0-59.505778z m-690.676623 0a23.893333 23.893333 0 0 1-23.870577-23.870578V512.273067l223.778133-94.663111L459.662222 833.604267H83.694933z" fill="#333333" /><path d="M720.736711 178.722133a113.231644 113.231644 0 0 0-113.095111 113.095111c0 62.395733 50.722133 113.117867 113.095111 113.117867 62.395733 0 113.095111-50.744889 113.095111-113.095111 0-62.395733-50.699378-113.117867-113.095111-113.117867z m0 166.7072a53.703111 53.703111 0 0 1-53.612089-53.612089 53.703111 53.703111 0 0 1 53.612089-53.612088 53.703111 53.703111 0 0 1 53.612089 53.612088 53.703111 53.703111 0 0 1-53.612089 53.612089z" fill="#333333" /></svg>