<?xml version="1.0" standalone="no"?><!DOCTYPE svg PUBLIC "-//W3C//DTD SVG 1.1//EN" "http://www.w3.org/Graphics/SVG/1.1/DTD/svg11.dtd"><svg t="1574573847462" class="icon" viewBox="0 0 1249 1024" version="1.1" xmlns="http://www.w3.org/2000/svg" p-id="14653" xmlns:xlink="http://www.w3.org/1999/xlink" width="156.125" height="128"><defs><style type="text/css"></style></defs><path d="M1201.446587 583.690385L1157.328138 539.571937c-5.624165-5.624165-14.622829-5.624165-20.122011 0l-98.360394 98.360393c-5.624165 5.624165-14.622829 5.624165-20.122012 0l-98.360394-98.360393c-5.624165-5.624165-14.622829-5.624165-20.122012 0L856.122867 583.690385c-5.624165 5.624165-5.624165 14.622829 0 20.122012l98.360394 98.360394c5.624165 5.624165 5.624165 14.622829 0 20.122012L855.997886 820.530215c-5.624165 5.624165-5.624165 14.622829 0 20.122012l44.118448 44.118448c5.624165 5.624165 14.622829 5.624165 20.122012 0l98.360394-98.360393c5.624165-5.624165 14.622829-5.624165 20.122011 0l98.360394 98.360393c5.624165 5.624165 14.622829 5.624165 20.122012 0l44.118449-44.118448c5.624165-5.624165 5.624165-14.622829 0-20.122012l-98.360394-98.360394c-5.624165-5.624165-5.624165-14.622829 0-20.122012l98.360394-98.360393c5.624165-5.374202 5.624165-14.497847 0.124981-19.997031z" fill="#8a8a8a" p-id="14654"></path><path d="M1027.847366 425.088937c42.243727 0 83.987528 9.248627 122.231849 26.995992C1190.823165 350.599999 1178.574983 235.617074 1117.459059 145.005529 1056.343135 54.518967 954.108316 0.15204 844.874537 0.027058c-83.487602-1.124833-163.600706 32.870119-220.717223 93.736081L588.662584 138.506494l-35.244766-41.493838C491.177061 34.771899 420.81251 0.027058 332.825576 0.027058 199.720342 0.027058 79.738159 80.140162 28.745731 203.121899c-50.867446 122.981737-22.621641 264.585709 71.489384 358.696734l436.560172 440.434596c13.747958 13.87294 32.495175 21.746771 51.992279 21.746771 19.497105 0 38.244321-7.873831 51.992279-21.746771l135.104937-136.22977c-53.242094-90.361581-53.991982-202.469934-1.874721-293.581403s148.977877-147.353118 253.837305-147.353119z m51.117409 135.229919" fill="#8a8a8a" p-id="14655"></path></svg>