<?xml version="1.0" standalone="no"?><!DOCTYPE svg PUBLIC "-//W3C//DTD SVG 1.1//EN" "http://www.w3.org/Graphics/SVG/1.1/DTD/svg11.dtd"><svg t="1565799379324" class="icon" viewBox="0 0 1024 1024" version="1.1" xmlns="http://www.w3.org/2000/svg" p-id="4536" xmlns:xlink="http://www.w3.org/1999/xlink" width="300" height="300"><defs><style type="text/css"></style></defs><path d="M726.4 992H166.4C108.8 992 64 947.2 64 889.6V326.4C64 272 108.8 224 166.4 224h556.8c57.6 0 102.4 44.8 102.4 102.4v563.2c3.2 57.6-44.8 102.4-99.2 102.4zM179.2 940.8h534.4c35.2 0 64-28.8 64-64V339.2c0-35.2-28.8-64-64-64H179.2c-35.2 0-64 28.8-64 64v537.6c0 35.2 28.8 64 64 64z" p-id="4537"></path><path d="M889.6 64H329.6C275.2 64 227.2 108.8 227.2 166.4v80h51.2V179.2c0-35.2 28.8-64 64-64h534.4c35.2 0 64 28.8 64 64v537.6c0 35.2-28.8 64-64 64h-54.4V832h67.2c57.6 0 102.4-44.8 102.4-102.4V166.4C992 108.8 947.2 64 889.6 64z" p-id="4538"></path></svg>