<?xml version="1.0" standalone="no"?><!DOCTYPE svg PUBLIC "-//W3C//DTD SVG 1.1//EN" "http://www.w3.org/Graphics/SVG/1.1/DTD/svg11.dtd"><svg t="1564202127730" class="icon" viewBox="0 0 1024 1024" version="1.1" xmlns="http://www.w3.org/2000/svg" p-id="7519" xmlns:xlink="http://www.w3.org/1999/xlink" width="300" height="300"><defs><style type="text/css"></style></defs><path d="M512 2c-2.7 0-5.5 0-8.2 0.1 268.9 4.3 485.6 223.7 485.6 493.6 0 272.7-221 493.7-493.7 493.7-270 0-489.3-216.7-493.6-485.6 0 2.7-0.1 5.5-0.1 8.2 0 281.7 228.3 510 510 510s510-228.3 510-510S793.7 2 512 2z" fill="#CEB524" p-id="7520"></path><path d="M495.7 989.4c272.7 0 493.7-221 493.7-493.7 0-269.9-216.7-489.3-485.6-493.6-2.7 0-5.4-0.1-8.1-0.1C223 2 2 223 2 495.7c0 2.7 0 5.4 0.1 8.1 4.3 268.9 223.6 485.6 493.6 485.6z m112.6-702.9h96.1c-7.2 9.3-29.4 40.7-39.4 56.6l-76.7 121h31.1c25 0 40-1.1 58.3-4.4v62.7c-18.9-3.3-33.9-4.4-58.3-4.4h-65l-18.3 28.6v15.9h82.2c25 0 38.9-1.1 58.3-4.4v62.7c-18.9-3.3-33.9-4.4-58.3-4.4h-82.2v37.4c0 31.3 1.1 48.9 4.4 70.9h-82.2c2.8-21.4 4.4-44 4.4-70.9v-37.4h-83.9c-25 0-39.4 1.1-58.3 4.4v-62.7c19.4 3.3 32.8 4.4 58.3 4.4h83.9V546l-18.3-28H380c-25.6 0-39.4 1.1-58.3 4.4v-62.7c18.3 3.3 32.8 4.4 58.3 4.4h31.1l-77.2-121c-16.1-24.7-30.5-46.2-38.9-56.6h95.5c5 15.9 11.1 28 26.7 53.9l82.2 139.7L581.6 341c15.6-25.9 22.3-39.6 26.7-54.5z" fill="#FFDD12" p-id="7521"></path><path d="M417.2 340.4c-15.6-25.8-21.7-37.9-26.7-53.9H295c8.3 10.4 22.8 31.9 38.9 56.6l77.2 121H380c-25.6 0-40-1.1-58.3-4.4v62.7c18.9-3.3 32.8-4.4 58.3-4.4h64.4l18.3 28v16.5h-83.9c-25.6 0-38.9-1.1-58.3-4.4v62.7c18.9-3.3 33.3-4.4 58.3-4.4h83.9v37.4c0 26.9-1.7 49.5-4.4 70.9h82.2c-3.3-22-4.4-39.6-4.4-70.9v-37.4h82.2c24.4 0 39.4 1.1 58.3 4.4v-62.7c-19.4 3.3-33.3 4.4-58.3 4.4h-82.2v-15.9l18.3-28.6h65c24.4 0 39.4 1.1 58.3 4.4v-62.7c-18.3 3.3-33.3 4.4-58.3 4.4h-31.1l76.7-121c10-15.9 32.2-47.3 39.4-56.6h-96.1c-4.4 14.8-11.1 28.6-26.7 54.4L499.4 480l-82.2-139.6z" fill="#ED9145" p-id="7522"></path></svg>