<?xml version="1.0" standalone="no"?><!DOCTYPE svg PUBLIC "-//W3C//DTD SVG 1.1//EN" "http://www.w3.org/Graphics/SVG/1.1/DTD/svg11.dtd"><svg t="1563605471629" class="icon" viewBox="0 0 1024 1024" version="1.1" xmlns="http://www.w3.org/2000/svg" p-id="83336" width="300" height="300" xmlns:xlink="http://www.w3.org/1999/xlink"><defs><style type="text/css"></style></defs><path d="M289 936.4c-18.2 0-36.3-5.8-51.7-17.1-26.7-19.6-39.8-51.9-34.2-84.5l34.7-199.2L90.7 494.5c-24-23.1-32.6-57-22.5-88.7 10.2-31.9 37.3-54.6 70.7-59.4l204-29.2L434 135.5c14.9-29.6 44.8-48 78.1-48s63.3 18.4 78.1 48l91.1 181.7 203.9 29.2c33.4 4.8 60.4 27.6 70.7 59.4 10.2 31.6 1.5 65.6-22.5 88.6L786.2 635.7l34.7 199.2c5.7 32.5-7.4 64.8-34.1 84.4-27 19.9-62.4 22.6-92.2 7.2L512 832l-182.6 94.5c-12.8 6.6-26.6 9.9-40.4 9.9z m223-199.5c13.9 0 27.7 3.3 40.4 9.8l173 89.5-32.9-188.6c-4.9-28.3 4.6-57.1 25.4-77.1l138.5-132.9-192.1-27.5c-28.3-4-52.9-21.6-65.6-47.1L512 190.2 425.4 363c-12.8 25.5-37.3 43.1-65.7 47.1l-192.1 27.5 138.5 132.9c20.8 20 30.3 48.8 25.3 77.1l-32.9 188.6 173.1-89.6c12.7-6.5 26.5-9.7 40.4-9.7z" p-id="83337" fill="#f17e0c"></path></svg>