<?xml version="1.0" standalone="no"?><!DOCTYPE svg PUBLIC "-//W3C//DTD SVG 1.1//EN" "http://www.w3.org/Graphics/SVG/1.1/DTD/svg11.dtd"><svg t="1582952840804" class="icon" viewBox="0 0 1227 1024" version="1.1" xmlns="http://www.w3.org/2000/svg" p-id="24211" xmlns:xlink="http://www.w3.org/1999/xlink" width="153.375" height="128"><defs><style type="text/css"></style></defs><path d="M167.724138 985.158621h-35.310345V489.048276c0-55.33131 47.518897-100.343172 105.931035-100.343173h211.862069v35.310345H238.344828c-38.938483 0-70.62069 29.175172-70.62069 65.032828v496.110345zM1050.482759 985.158621h-35.310345V100.343172C1015.172414 64.485517 983.490207 35.310345 944.551724 35.310345H600.275862c-38.938483 0-70.62069 29.175172-70.62069 65.032827V985.158621h-35.310344V100.343172C494.344828 45.011862 541.863724 0 600.275862 0h344.275862c58.412138 0 105.931034 45.011862 105.931035 100.343172V985.158621z" p-id="24212" fill="#bfbfbf"></path><path d="M35.310345 953.37931h1156.413793v35.310345H35.310345zM662.068966 273.655172h220.689655v35.310345H662.068966zM662.068966 406.068966h220.689655v35.310344H662.068966zM662.068966 547.310345h220.689655v35.310345H662.068966zM662.068966 688.551724h220.689655v35.310345H662.068966z" p-id="24213" fill="#bfbfbf"></path><path d="M283.956966 529.655172h120.637793v35.310345H283.956966zM283.956966 670.896552h120.637793v35.310345H283.956966z" p-id="24214" fill="#bfbfbf"></path></svg>