<?xml version="1.0" standalone="no"?><!DOCTYPE svg PUBLIC "-//W3C//DTD SVG 1.1//EN" "http://www.w3.org/Graphics/SVG/1.1/DTD/svg11.dtd"><svg t="1563602989267" class="icon" viewBox="0 0 1024 1024" version="1.1" xmlns="http://www.w3.org/2000/svg" p-id="41287" xmlns:xlink="http://www.w3.org/1999/xlink" width="300" height="300"><defs><style type="text/css"></style></defs><path d="M841.024 327.808c-20.096 0-37.76 16.256-37.76 36.352v544.128a36.16 36.16 0 0 1-36.608 35.904H257.6a36.48 36.48 0 0 1-36.864-35.904V362.688c0-20.096-14.72-36.352-34.88-36.352-20.096 0-34.816 16.256-34.816 36.352v545.664c0 60.032 46.336 112.512 106.368 112.512h508.8c60.032 0 112.256-52.416 112.256-112.512V364.16c0.192-19.84-17.472-36.352-37.44-36.352z m-404.608 435.264V363.2c0-20.16-14.72-36.352-34.816-36.352s-34.88 16.192-34.88 36.352v399.616c0 20.16 14.72 36.352 34.816 36.352s34.88-16 34.88-36.096z m220.736 0V363.2c0-20.16-17.984-36.352-37.76-36.352-19.904 0-37.76 16.192-37.76 36.352v399.616c0 20.16 17.856 36.352 37.76 36.352 19.712 0 37.76-16 37.76-36.096z m322.24-580.032h-176.128V109.056c0-60.032-49.152-105.6-108.608-105.6L330.112 3.2C270.08 3.2 220.736 48.704 220.736 108.8v74.24H44.736c-20.096 0-36.416 14.72-36.416 34.816s16.256 34.816 36.416 34.816h934.656c20.032 0 36.352-14.72 36.352-34.816s-16.384-34.816-36.352-34.816z m-252.032 0H291.456V109.056c0-20.096 18.816-36.16 38.912-36.16h364.288c19.904 0 33.152 15.744 33.152 36.16l-0.448 73.984z" fill="#f71605" p-id="41288"></path></svg>