<?xml version="1.0" standalone="no"?><!DOCTYPE svg PUBLIC "-//W3C//DTD SVG 1.1//EN" "http://www.w3.org/Graphics/SVG/1.1/DTD/svg11.dtd"><svg t="1579977662974" class="icon" viewBox="0 0 1024 1024" version="1.1" xmlns="http://www.w3.org/2000/svg" p-id="12956" xmlns:xlink="http://www.w3.org/1999/xlink" width="128" height="128"><defs><style type="text/css"></style></defs><path d="M1002.603 318.912c-11.819 0-21.355 9.579-21.355 21.376v515.115c0 69.376-56.448 125.824-125.824 125.824h-686.87c-69.375 0-125.823-56.448-125.823-125.824v-686.87c0-69.376 56.448-125.824 125.824-125.824h515.178c11.819 0 21.355-9.557 21.355-21.354C705.088 9.557 695.552 0 683.733 0H168.555C75.605 0 0 75.605 0 168.555v686.912C0 948.373 75.605 1024 168.555 1024h686.912c92.906 0 168.533-75.627 168.512-168.533V340.288c0-11.797-9.558-21.376-21.376-21.376z" p-id="12957"></path><path d="M274.112 597.995c-0.64 0.917-1.515 1.578-2.048 2.624l-122.667 245.29c-4.096 8.214-2.474 18.134 4.032 24.662a21.493 21.493 0 0 0 15.126 6.25c3.242 0 6.528-0.746 9.557-2.261l245.29-122.603c1.217-0.597 2.049-1.621 3.094-2.41 0.79-0.576 1.728-0.896 2.453-1.622L894.933 281.9c0.043-0.043 0.107-0.043 0.15-0.086s0.064-0.106 0.106-0.149l70.486-70.485c17.962-17.942 27.882-41.792 27.882-67.158s-9.92-49.194-27.882-67.157l-18.582-18.56c-17.92-17.963-41.749-27.819-67.114-27.819s-49.174 9.856-67.115 27.819L276.117 595.051c-0.896 0.853-1.322 1.984-2.005 2.944z m22.933 48.213l80.768 80.747L216.3 807.7l80.746-161.493zM843.051 88.533c19.754-19.733 54.08-19.776 73.834 0l18.582 18.539c9.877 9.856 15.338 22.997 15.338 36.928 0 13.952-5.461 27.072-15.338 36.95l-55.51 55.509-92.416-92.438 55.51-55.488z m-85.718 85.718l92.416 92.437-435.882 435.904-92.438-92.459 435.904-435.882z" p-id="12958"></path></svg>