<?xml version="1.0" standalone="no"?><!DOCTYPE svg PUBLIC "-//W3C//DTD SVG 1.1//EN" "http://www.w3.org/Graphics/SVG/1.1/DTD/svg11.dtd"><svg t="1564071545771" class="icon" viewBox="0 0 1024 1024" version="1.1" xmlns="http://www.w3.org/2000/svg" p-id="4450" xmlns:xlink="http://www.w3.org/1999/xlink" width="300" height="300"><defs><style type="text/css"></style></defs><path d="M851.855945 256.039497 694.672238 98.86208 773.29664 20.271543C799.348517-5.74464 841.531026-5.74464 867.581586 20.271543L930.447141 83.135634C956.499017 109.186926 956.499017 151.433509 930.447141 177.483337L851.855945 256.039497 851.855945 256.039497ZM395.220407 712.656457 238.035383 555.47904 665.348242 131.523291 822.530706 288.702171 395.220407 712.656457 395.220407 712.656457ZM111.761262 841.558309 207.395401 586.117851 363.263122 742.014537 111.761262 841.558309 111.761262 841.558309ZM817.638473 895.275886C839.640064 895.275886 857.455982 913.092754 857.455982 935.094857 857.455982 957.061851 839.640064 974.87872 817.638473 974.87872L113.617701 974.87872C91.649317 974.87872 73.832155 957.063314 73.832155 935.094857 73.832155 913.092754 91.649317 895.275886 113.617701 895.275886L817.638473 895.275886 817.638473 895.275886Z" p-id="4451" fill="#9d9d9d"></path></svg>