<?xml version="1.0" standalone="no"?><!DOCTYPE svg PUBLIC "-//W3C//DTD SVG 1.1//EN" "http://www.w3.org/Graphics/SVG/1.1/DTD/svg11.dtd"><svg t="1583519869069" class="icon" viewBox="0 0 1024 1024" version="1.1" xmlns="http://www.w3.org/2000/svg" p-id="2255" xmlns:xlink="http://www.w3.org/1999/xlink" width="128" height="128"><defs><style type="text/css"></style></defs><path d="M924.618024 0H99.381814A65.751579 65.751579 0 0 0 36.971709 65.670737v94.450526c0 14.362947 0 29.210947 315.28421 422.50779l0.161684 58.610526c0.269474 105.660632 0.781474 282.543158 0.781474 308.62821 0 9.808842 0 24.629895 5.928421 38.938948C368.42434 1011.173053 388.39234 1024 413.965393 1024c14.524632 0 31.232-4.096 51.2-12.557474 39.397053-17.084632 80.330105-38.642526 119.915789-59.769263l32.660211-17.327158c40.151579-21.126737 54.379789-50.391579 54.379789-111.858526 0-40.070737 0.242526-197.901474 0.296421-239.993263C987.02813 189.278316 987.02813 174.484211 987.02813 160.121263v-94.315789A65.751579 65.751579 0 0 0 924.618024 0zM604.159919 570.421895c0 2.048-0.350316 206.416842-0.350316 252.065684 0 41.957053-5.551158 44.867368-17.758315 51.2l-35.786106 18.863158c-37.429895 19.860211-76.153263 40.421053-112.128 55.781052a97.603368 97.603368 0 0 1-16.572631 5.847579v-4.608c0-36.352-0.970105-376.023579-0.970106-379.445894a34.196211 34.196211 0 0 0-7.518315-21.288421C307.792761 417.953684 131.88034 195.152842 105.310235 152.360421V68.338526h813.433263v84.021895c-26.112 42.199579-201.862737 265.296842-307.2 396.746105a34.061474 34.061474 0 0 0-7.383579 21.315369z" p-id="2256"></path><path d="M255.38013 140.395789a33.899789 33.899789 0 0 0-23.013053-12.395789 26.597053 26.597053 0 0 0-3.287579-0.188632h-2.748631a33.711158 33.711158 0 0 0-18.566737 7.221895 34.330947 34.330947 0 0 0-6.063158 47.562105l221.749895 282.085053a33.980632 33.980632 0 0 0 26.947368 13.042526 34.196211 34.196211 0 0 0 26.947368-55.296z" p-id="2257"></path></svg>