<?xml version="1.0" standalone="no"?><!DOCTYPE svg PUBLIC "-//W3C//DTD SVG 1.1//EN" "http://www.w3.org/Graphics/SVG/1.1/DTD/svg11.dtd"><svg t="1566626464585" class="icon" viewBox="0 0 1024 1024" version="1.1" xmlns="http://www.w3.org/2000/svg" p-id="8610" xmlns:xlink="http://www.w3.org/1999/xlink" width="300" height="300"><defs><style type="text/css"></style></defs><path d="M657.677205 436.1797L920.066556 173.790349v136.306157h102.229617V0h-310.096506v102.229617h136.306157l-262.389351 262.389351C442.995008 255.574043 238.535774 265.797005 105.637271 398.695507c-143.121464 143.121464-143.121464 374.84193 0 517.963395 143.121464 143.121464 374.84193 143.121464 517.963395 0 132.898502-132.898502 143.121464-337.357737 34.076539-480.479202z m-477.071548 408.91847c-102.229617-102.229617-102.229617-272.612313 0-374.84193s272.612313-102.229617 374.84193 0 102.229617 272.612313 0 374.84193c-105.637271 102.229617-272.612313 102.229617-374.84193 0z" fill="#ffffff" p-id="8611"></path></svg>