<?xml version="1.0" standalone="no"?><!DOCTYPE svg PUBLIC "-//W3C//DTD SVG 1.1//EN" "http://www.w3.org/Graphics/SVG/1.1/DTD/svg11.dtd"><svg t="1583560954336" class="icon" viewBox="0 0 1024 1024" version="1.1" xmlns="http://www.w3.org/2000/svg" p-id="37125" xmlns:xlink="http://www.w3.org/1999/xlink" width="128" height="128"><defs><style type="text/css"></style></defs><path d="M915.049101 220.296335l-124.130112-78.443583c-17.134239-10.829649-39.693024-5.703909-50.379411 11.440563-10.686387 17.159822-5.457292 39.836287 11.682064 50.67003l51.779294 32.719192-157.701718 35.824927C609.75286 172.660408 520.522606 103.471606 418.439626 89.845261c-16.23373-2.915399-32.870642-4.688789-49.943482-4.688789-155.303089 0-281.201473 126.016065-281.201473 281.462416 0 143.506415 107.374496 261.682931 246.049882 279.035134l0 72.79698 0 35.18843-70.298066 0c-19.415189 0-35.151591 15.747659-35.151591 35.176151 0 19.434631 15.736403 35.184337 35.151591 35.184337l70.298066 0 0 70.370721 0 16.488533 8.609075 8.568143c14.34266 14.274098 37.594223 14.274098 51.939953 0l9.748015-9.711176 0-15.35164 0-70.368674 70.303182 0c19.415189 0 35.151591-15.751752 35.151591-35.180244s-15.735379-35.180244-35.151591-35.180244l-70.303182 0 0-35.184337 0-69.683059c13.905708-1.033539 27.863604-2.750647 41.865503-5.925966 139.860375-31.770588 230.883461-162.665777 216.59913-301.768905l156.592454-35.5691-31.429827 50.446949c-10.686387 17.144472-5.457292 39.830147 11.682064 50.659797 17.139356 10.829649 39.693024 5.708002 50.379411-11.440563l77.396741-124.215046C937.412434 253.806543 932.188456 231.124961 915.049101 220.296335L915.049101 220.296335zM373.350708 591.491449c-122.528638 0-221.86097-99.334379-221.86097-221.866087 0-122.527614 99.328239-221.86097 221.86097-221.86097 122.531708 0 221.865063 99.328239 221.865063 221.86097C595.215772 492.15707 495.882416 591.491449 373.350708 591.491449L373.350708 591.491449zM373.350708 591.491449" p-id="37126"></path></svg>