<?xml version="1.0" standalone="no"?><!DOCTYPE svg PUBLIC "-//W3C//DTD SVG 1.1//EN" "http://www.w3.org/Graphics/SVG/1.1/DTD/svg11.dtd"><svg t="1566626474856" class="icon" viewBox="0 0 1025 1024" version="1.1" xmlns="http://www.w3.org/2000/svg" p-id="8785" xmlns:xlink="http://www.w3.org/1999/xlink" width="300.29296875" height="300"><defs><style type="text/css"></style></defs><path d="M436.1797 659.381032c143.121464 109.044925 347.580699 98.821963 480.479202-34.076539 143.121464-143.121464 143.121464-374.84193 0-517.963395-143.121464-143.121464-374.84193-143.121464-517.963395 0-132.898502 132.898502-143.121464 337.357737-34.076539 480.479202L238.535774 713.903494 71.560732 546.928453 0 618.489185 166.975042 785.464226 0 952.439268 71.560732 1024 238.535774 857.024958l166.975041 166.975042 71.560732-71.560732L310.096506 785.464226l126.083194-126.083194z m34.07654-477.071548c102.229617-102.229617 272.612313-102.229617 374.84193 0s102.229617 272.612313 0 374.84193-272.612313 102.229617-374.84193 0c-105.637271-105.637271-105.637271-272.612313 0-374.84193z" fill="#ffffff" p-id="8786"></path></svg>