<?xml version="1.0" standalone="no"?><!DOCTYPE svg PUBLIC "-//W3C//DTD SVG 1.1//EN" "http://www.w3.org/Graphics/SVG/1.1/DTD/svg11.dtd"><svg t="1578751050705" class="icon" viewBox="0 0 1024 1024" version="1.1" xmlns="http://www.w3.org/2000/svg" p-id="78992" xmlns:xlink="http://www.w3.org/1999/xlink" width="128" height="128"><defs><style type="text/css"></style></defs><path d="M838.428 958.709H185.572c-37.9 0-68.72-30.83-68.72-68.721v-463.35a68.799 68.799 0 0 1 22.885-51.205l326.98-292.596c26.173-23.43 65.6-23.388 91.74 0.084l325.874 292.544a68.812 68.812 0 0 1 22.818 51.14v463.383c0 37.892-30.821 68.721-68.721 68.721zM512.554 134.043L185.572 426.638v463.35h652.856V426.604l-325.89-292.553 0.016-0.008z m-0.018 0.008z m-22.901-25.611h0.167-0.167z" fill="#000000" p-id="78993"></path><path d="M554.951 838.555H469.05V598.03c0-18.977 15.383-34.36 34.36-34.36h17.18c18.978 0 34.361 15.383 34.361 34.36v240.525z" fill="#000000" p-id="78994"></path></svg>