<?xml version="1.0" standalone="no"?><!DOCTYPE svg PUBLIC "-//W3C//DTD SVG 1.1//EN" "http://www.w3.org/Graphics/SVG/1.1/DTD/svg11.dtd"><svg t="1583561657515" class="icon" viewBox="0 0 1024 1024" version="1.1" xmlns="http://www.w3.org/2000/svg" p-id="75278" xmlns:xlink="http://www.w3.org/1999/xlink" width="128" height="128"><defs><style type="text/css"></style></defs><path d="M700 924.6H321.7c-55.9 0-102.5-46.6-102.5-102.5v-330c0-3.7-1.9-5.6-5.6-5.6h-69c-16.8 0-31.7-11.2-39.1-31.7-3.7-9.3-3.7-20.5-3.7-29.8 1.9-11.2 7.5-22.4 14.9-28l303.8-260.9c50.3-42.9 124.9-42.9 177.1 0L901.4 397c7.5 7.5 13 16.8 14.9 28 1.9 9.3 0 20.5-3.7 29.8-7.5 18.6-22.4 31.7-39.1 31.7h-69c-3.7 0-5.6 1.9-5.6 5.6v328C802.6 878 756 924.6 700 924.6zM444.7 160.4L140.9 421.3c-5.6 3.7-5.6 13-3.7 22.4 1.9 5.6 5.6 9.3 7.5 9.3h69c20.5 0 39.1 16.8 39.1 39.1v328c0 39.1 31.7 69 69 69H700c39.1 0 69-31.7 69-69v-328c0-20.5 16.8-39.1 39.1-39.1h69c1.9 0 5.6-3.7 7.5-9.3 3.7-9.3 1.9-18.6-1.9-20.5l-303.8-261c-39.2-33.5-96.9-33.5-134.2-1.8z" fill="#1F1F1F" p-id="75279"></path><path d="M700 928.3H321.7c-59.6 0-108.1-48.5-108.1-108.1v-328h-69c-18.6 0-35.4-13-42.9-33.6C98 447.4 98 436.2 98 425c1.9-13 7.5-24.2 16.8-31.7l303.8-260.9c52.2-44.7 130.5-44.7 182.7 0L907 393.3c9.3 7.5 14.9 18.6 16.8 31.7 1.9 11.2 0 22.4-3.7 31.7-7.5 20.5-24.2 33.6-42.9 33.6h-69v329.9c0 59.6-48.5 108.1-108.2 108.1zM509.9 108.2c-29.8 0-59.6 11.2-85.7 31.7L120.4 400.8c-7.5 5.6-11.2 14.9-13 26.1-1.9 9.3 0 18.6 3.7 28 5.6 16.8 18.6 28 33.6 28h69c5.6 0 9.3 3.7 9.3 9.3v328c0 54.1 44.7 98.8 98.8 98.8H700c54.1 0 98.8-44.7 98.8-98.8v-328c0-5.6 3.7-9.3 9.3-9.3h69c14.9 0 28-11.2 33.6-28 3.7-9.3 3.7-18.6 3.7-28-1.9-11.2-5.6-18.6-13-26.1L597.5 139.9c-26.1-20.5-55.9-31.7-87.6-31.7zM700 894.7H321.7c-41 0-74.6-33.6-74.6-74.6v-328c0-18.6-14.9-33.6-33.6-33.6h-69c-5.6 0-9.3-7.5-11.2-13-3.7-11.2-1.9-22.4 3.7-26.1l305.7-260.9c41-33.6 98.8-33.6 139.8 0l303.8 260.9c5.6 3.7 7.5 16.8 3.7 26.1-1.9 5.6-5.6 13-11.2 13h-69c-18.6 0-33.6 14.9-33.6 33.6v328c-1.6 41.1-35.1 74.6-76.2 74.6zM213.6 449.3c24.2 0 42.9 18.6 42.9 42.9v328c0 35.4 29.8 65.2 65.2 65.2H700c35.4 0 65.2-29.8 65.2-65.2v-328c0-24.2 18.6-42.9 42.9-42.9h69s1.9-1.9 3.7-5.6c3.7-7.5 1.9-14.9 0-16.8L575.2 164.1c-37.3-31.7-91.3-31.7-126.7 0L144.6 425c-1.9 1.9-3.7 7.5 0 16.8 1.9 3.7 3.7 5.6 3.7 5.6l65.3 1.9z" fill="#1F1F1F" p-id="75280"></path><path d="M618 924.6H407.4V721.4c0-57.8 46.6-106.2 106.2-106.2s106.2 46.6 106.2 106.2v203.2H618zM441 891h145.4V721.4c0-39.1-31.7-72.7-72.7-72.7-39.1 0-72.7 31.7-72.7 72.7V891z" fill="#1F1F1F" p-id="75281"></path><path d="M623.6 928.3H403.7V721.4c0-61.5 50.3-110 110-110 59.6 0 110 50.3 110 110v206.9zM413 919h201.3V721.4c0-55.9-44.7-100.7-100.7-100.7S413 665.5 413 721.4V919z m177.1-24.3H435.4V719.5c0-42.9 35.4-76.4 76.4-76.4s76.4 35.4 76.4 76.4v175.2h1.9z m-145.4-9.3h136.1V719.5c0-37.3-29.8-67.1-67.1-67.1s-67.1 29.8-67.1 67.1v165.9h-1.9z" fill="#1F1F1F" p-id="75282"></path></svg>