<?xml version="1.0" standalone="no"?><!DOCTYPE svg PUBLIC "-//W3C//DTD SVG 1.1//EN" "http://www.w3.org/Graphics/SVG/1.1/DTD/svg11.dtd"><svg t="1582953019696" class="icon" viewBox="0 0 1024 1024" version="1.1" xmlns="http://www.w3.org/2000/svg" p-id="34996" xmlns:xlink="http://www.w3.org/1999/xlink" width="128" height="128"><defs><style type="text/css"></style></defs><path d="M800.65074482 905.19901104L609.50154395 905.19901104c-26.30356612 0-47.70815362-21.4045875-47.70815362-47.70815362L561.79339033 701.87206661c0-3.69109776-3.12178359-6.81288047-6.81557871-6.81288047l-71.94851894 0c-3.69199688 0-6.81557871 3.12178359-6.81557872 6.81288047l0 155.61699169c0 26.30356612-21.4045875 47.70815362-47.7081536 47.70815362L223.85920977 905.19721192c-26.302667 0-47.70815362-21.4045875-47.70815362-47.70815362L176.15105527 532.14184355c0-3.69289599-3.12178359-6.81557871-6.81557871-6.81557871l-13.92166143 0c-22.42899317 0-30.19702675-12.76594453-32.49316933-18.24952676-2.29614346-5.49077695-5.94317021-19.98085342 9.79076162-35.96121826L485.29845372 132.33411318c8.99210303-9.11891777 21.00435908-14.14471026 33.81797108-14.14471025 12.71288057 0 24.65408497 4.95114346 33.61830645 13.94324648l85.64713154 85.91874697 0-17.85649306c0-26.302667 21.4045875-47.70815362 47.70995273-47.70815361l77.21264971 0c26.30356612 0 47.70815362 21.4054875 47.70815362 47.70815361l0 174.13813476c0 9.74489326 6.42434414 25.56336797 13.21743867 32.55972452l67.79873232 64.18678095c15.6035206 16.05861211 11.89983164 30.5369956 9.58390225 36.01967872-2.31503028 5.47818575-10.12263662 18.22434346-32.50576142 18.22434346l-13.93065528 0c-3.69379599 0-6.81557871 3.12268271-6.81557871 6.8155787l0 325.34901299C848.35889844 883.79442354 826.95431094 905.19901104 800.65074482 905.19901104zM483.0292918 654.16391299l71.94851894 0c26.30356612 0 47.70815362 21.40908487 47.70815361 47.70815361l0 155.6169917c0 3.69109776 3.12178359 6.81557871 6.81557872 6.81557871l191.14920087 0c3.69199688 0 6.81557871-3.12448183 6.81557872-6.81557871L807.46632354 532.14184355c0-24.02091386 17.84390185-43.94780332 40.97351953-47.23687353l-53.53800117-49.51233106c-14.1285208-14.54134131-24.78539531-40.79094346-24.78539532-61.05960175L770.11644746 200.19670244c0-3.69289599-3.12268271-6.81467959-6.81467959-6.81467958l-77.21354883 0c-3.69199688 0-6.81557871 3.12178359-6.81557871 6.81467958l0 40.06693477c0 23.71422217-14.8345418 34.50960263-28.61230078 34.50960263-6.15182871 0-15.5729417-2.10277441-25.56606621-12.12108222l-101.32530117-101.64638408c-1.66387148-1.66926797-3.62724082-1.92469482-4.65344473-1.92469482-1.03070127 0-3.01475567 0.25272862-4.68492363 1.95797284L176.46404346 484.96343047c22.93624951 3.45545683 40.57778848 23.29510605 40.57778847 47.17571484l0 325.34901299c0 3.69289599 3.12358184 6.81557871 6.81557872 6.81557871l204.6463497 0c3.69469512 0 6.81557871-3.12268271 6.81557871-6.81557871L435.31933906 701.87206661C435.32113818 675.57119873 456.72572568 654.16391299 483.0292918 654.16391299z" fill="#bfbfbf" p-id="34997"></path></svg>