<?xml version="1.0" standalone="no"?><!DOCTYPE svg PUBLIC "-//W3C//DTD SVG 1.1//EN" "http://www.w3.org/Graphics/SVG/1.1/DTD/svg11.dtd"><svg t="1579974751328" class="icon" viewBox="0 0 1024 1024" version="1.1" xmlns="http://www.w3.org/2000/svg" p-id="6906" xmlns:xlink="http://www.w3.org/1999/xlink" width="128" height="128"><defs><style type="text/css"></style></defs><path d="M767.2 858.3H603.6c-10.1 0-18.2-8.2-18.2-18.2 0-10.1 8.2-18.2 18.2-18.2h163.5c30.1 0 54.7-24.6 54.7-54.7V621.4c0-10.1 8.2-18.2 18.2-18.2 10.1 0 18.2 8.2 18.2 18.2v145.8c0.1 50.2-40.8 91.1-91 91.1zM840.1 420.9c-10.1 0-18.2-8.2-18.2-18.2V256.8c0-30.1-24.6-54.7-54.7-54.7H603.6c-10.1 0-18.2-8.2-18.2-18.2s8.2-18.2 18.2-18.2h163.5c50.2 0 91.1 40.9 91.1 91.1v145.8c0.1 10.1-8.1 18.3-18.1 18.3zM183.9 420.9c-10.1 0-18.2-8.2-18.2-18.2V256.8c0-50.2 40.9-91.1 91.1-91.1h164.5c10.1 0 18.2 8.2 18.2 18.2 0 10.1-8.2 18.2-18.2 18.2H256.8c-30.1 0-54.7 24.6-54.7 54.7v145.8c0.1 10.1-8.1 18.3-18.2 18.3zM421.4 858.3H256.8c-50.2 0-91.1-40.9-91.1-91.1V621.4c0-10.1 8.2-18.2 18.2-18.2 10.1 0 18.2 8.2 18.2 18.2v145.8c0 30.1 24.6 54.7 54.7 54.7h164.5c10.1 0 18.2 8.2 18.2 18.2 0.1 10-8 18.2-18.1 18.2z" p-id="6907" fill="#000000"></path><path d="M703.6 724.3c-12.7-72.7-64.5-129.8-131.6-151.5C622.5 550 657.7 499 657.7 440c0-80.5-65.4-145.8-145.8-145.8S366.2 359.5 366.2 440c0 59 35.2 110 85.7 132.9-67.1 21.6-118.9 78.7-131.6 151.4-1.7 9.9 4.9 19.4 14.8 21.1 9.8 1.6 19.4-4.9 21.1-14.8C369.6 654.8 435 599.8 512 599.8c77.1 0 142.5 54.9 155.7 130.7 1.6 8.9 9.2 15.1 18 15.1 1 0 2.1-0.1 3.1-0.3 10-1.7 16.6-11.1 14.8-21zM402.6 440c0-60.4 48.9-109.4 109.4-109.4 60.4 0 109.4 48.9 109.4 109.4s-49 109.3-109.4 109.3S402.6 500.4 402.6 440z" p-id="6908" fill="#000000"></path></svg>