<?xml version="1.0" standalone="no"?><!DOCTYPE svg PUBLIC "-//W3C//DTD SVG 1.1//EN" "http://www.w3.org/Graphics/SVG/1.1/DTD/svg11.dtd"><svg t="1565799444821" class="icon" viewBox="0 0 1024 1024" version="1.1" xmlns="http://www.w3.org/2000/svg" p-id="9701" xmlns:xlink="http://www.w3.org/1999/xlink" width="300" height="300"><defs><style type="text/css"></style></defs><path d="M922.7 86.8H101.4c-20.7 0-37.3 16.7-37.3 37.3 0 20.6 16.7 37.3 37.3 37.3h821.3c20.7 0 37.3-16.7 37.3-37.3 0-20.5-16.6-37.3-37.3-37.3zM922.7 482.9H101.4c-20.7 0-37.3 16.7-37.3 37.3 0 20.7 16.7 37.3 37.3 37.3h821.3c20.7 0 37.3-16.7 37.3-37.3 0-20.6-16.6-37.3-37.3-37.3zM922.7 862H101.4C80.7 862 64 878.7 64 899.3c0 20.7 16.7 37.3 37.3 37.3h821.3c20.7 0 37.3-16.7 37.3-37.3 0.1-20.6-16.5-37.3-37.2-37.3z" p-id="9702"></path></svg>