<?xml version="1.0" standalone="no"?><!DOCTYPE svg PUBLIC "-//W3C//DTD SVG 1.1//EN" "http://www.w3.org/Graphics/SVG/1.1/DTD/svg11.dtd"><svg t="1580027277103" class="icon" viewBox="0 0 1881 1024" version="1.1" xmlns="http://www.w3.org/2000/svg" p-id="4270" xmlns:xlink="http://www.w3.org/1999/xlink" width="235.125" height="128"><defs><style type="text/css"></style></defs><path d="M1879.451606 41.392881s-65.083146 87.666998-429.548765-31.23991c-172.795753-39.635636-354.507898 45.558202-509.145453 109.079353C785.729333 57.273169 603.561607-26.68409 430.961103 14.383375 67.536814 136.284108 1.933003 49.202859 1.933003 49.202859s-62.870319 846.861899 528.540231 966.419638c179.434234 45.558202 295.867983-109.469852 412.69223-109.925434s234.299327 153.270809 413.343062 106.541111C1947.203162 887.734115 1879.191274 41.392881 1879.191274 41.392881z m-1028.313711 556.005319s-483.567777 224.732104-607.290837-267.817147l236.25182-3.51449a355.549228 355.549228 0 0 1 370.973934 271.331637z m787.50607-267.817147c-123.657978 492.549251-607.290838 267.817147-607.290838 267.817147a355.614311 355.614311 0 0 1 370.973934-271.331637l236.251821 3.51449z" p-id="4271" fill="#707070"></path></svg>