<?xml version="1.0" standalone="no"?><!DOCTYPE svg PUBLIC "-//W3C//DTD SVG 1.1//EN" "http://www.w3.org/Graphics/SVG/1.1/DTD/svg11.dtd"><svg t="1573840328917" class="icon" viewBox="0 0 1024 1024" version="1.1" xmlns="http://www.w3.org/2000/svg" p-id="21715" xmlns:xlink="http://www.w3.org/1999/xlink" width="128" height="128"><defs><style type="text/css"></style></defs><path d="M545.997 87.211c-14.95-7.031-32.597-4.71-45.295 5.837L255.864 296.824l-195.311-0.785c-11.23 0-22.05 4.437-30.003 12.39a42.385 42.385 0 0 0-12.561 30.106l-0.887 340.548c0 11.332 4.437 22.187 12.425 30.174 7.953 8.055 18.807 12.527 30.14 12.527h197.461l243.61 203.025c7.782 6.485 17.51 9.83 27.238 9.83a42.545 42.545 0 0 0 18.057-4.028 42.546 42.546 0 0 0 24.508-38.537V125.747c0-16.486-9.557-31.505-24.542-38.537z m165.069 212.855c-20.992-9.933-45.943-0.887-56.149 20.002-10.172 20.958-1.365 46.319 19.456 56.798 2.697 1.399 66.458 34.543 66.458 128.922 0 100.83-59.631 134.246-61.611 135.339-21.026 10.513-29.559 36.113-19.046 57.139 7.509 14.95 22.494 23.552 38.161 23.552a42.428 42.428 0 0 0 18.978-4.471c4.437-2.253 108.646-56.183 108.646-211.558 0-149.914-110.217-203.503-114.893-205.722z m132.54-125.03c-19.627-12.595-45.67-6.861-58.505 12.732-12.766 19.593-7.168 45.943 12.356 58.846 4.608 3.038 113.664 77.346 113.664 262.315 0 185.378-104.619 259.755-108.783 262.588-19.593 13.073-24.849 39.458-11.81 59.051 8.192 12.288 21.709 18.944 35.465 18.944 8.09 0 16.316-2.355 23.586-7.168 5.973-3.959 146.671-100.42 146.671-333.449 0-233.472-146.398-329.865-152.644-333.858z m0 0z" p-id="21716" fill="#2c2c2c"></path></svg>