<?xml version="1.0" standalone="no"?><!DOCTYPE svg PUBLIC "-//W3C//DTD SVG 1.1//EN" "http://www.w3.org/Graphics/SVG/1.1/DTD/svg11.dtd"><svg t="1579969568090" class="icon" viewBox="0 0 1024 1024" version="1.1" xmlns="http://www.w3.org/2000/svg" p-id="4574" xmlns:xlink="http://www.w3.org/1999/xlink" width="128" height="128"><defs><style type="text/css"></style></defs><path d="M524.964667 938.021778a84.671721 84.671721 0 0 1-52.510916-18.343198l-0.371279-0.313079-228.718005-212.058608H134.786381c-40.479464 0-73.41293-32.933466-73.41293-73.410923V394.314537c0-40.479464 32.933466-73.414937 73.41293-73.414938h108.632272l227.923267-212.030511c15.204384-12.497056 34.171732-19.3306 53.512367-19.3306 12.169929 0 24.040828 2.59494 35.281556 7.708558 29.188564 13.277746 47.901034 41.316348 48.834249 73.180129 0.028097 0.91716 0.040138 1.838334 0.040139 2.761514v680.478461a94.927053 94.927053 0 0 1-0.3773 8.469179c-2.791618 30.9406-21.602427 56.743499-50.315352 69.031836a84.296428 84.296428 0 0 1-33.352912 6.853613zM253.174264 667.110404c4.15632 0.32512 8.059768 1.904562 11.288894 4.567737L497.939557 888.159989c7.744683 6.113061 17.080849 9.406408 26.860543 9.406408 5.980605 0 11.892975-1.232245 17.572543-3.666633 14.778918-6.319774 24.452246-19.559388 25.883176-35.407992 0.148512-1.603525 0.218754-3.221098 0.218754-4.824622V173.188689c0-0.523805-0.010035-1.047609-0.02609-1.571414-0.479653-16.536975-9.863985-30.541224-25.100479-37.473106-6.02275-2.737431-12.282316-4.126216-18.600083-4.126217-10.012496 0-19.54534 3.48601-27.575005 10.082739L263.724614 356.771188c-3.720819 3.058538-8.28655 4.698187-12.960654 4.698187-0.557922 0-1.113838-0.022076-1.669753-0.068235a5.388565 5.388565 0 0 1-0.816814 0.036124h-113.491012c-18.126451 0-32.875266 14.748814-32.875265 32.877273v239.581433c0 18.128458 14.748814 32.877272 32.875265 32.877272l114.291771-0.076263c1.380757-0.002007 2.755494 0.140484 4.096112 0.413425z m531.603541 198.379479a20.141393 20.141393 0 0 1-16.077392-7.903229c-6.658942-8.649801-5.342406-20.877931 2.986289-27.855973 94.048025-78.679074 147.989871-194.215132 147.989871-316.978088 0-123.491467-54.455617-239.459011-149.404746-318.164175-8.366826-6.933889-9.737549-19.160012-3.116738-27.829883a20.123331 20.123331 0 0 1 16.133585-7.985512c4.700194 0 9.281979 1.657711 12.902453 4.668083 47.668232 39.652616 87.563684 89.676965 115.377512 144.6604 32.279212 63.801817 48.647606 132.657045 48.647606 204.651087 0 71.638818-16.215869 140.186988-48.19003 203.735934-27.528845 54.732571-67.051012 104.626471-114.283743 144.281093a20.209628 20.209628 0 0 1-12.964667 4.720263z m-102.13589-150.255678c-6.610776 0-12.818163-3.231132-16.59919-8.639766-6.036799-8.645787-4.389122-20.613018 3.732861-27.269954 49.775492-40.772474 78.319836-100.995963 78.319837-165.219232 0-65.210671-29.232716-125.990075-80.204329-166.756528-8.194232-6.560603-9.974365-18.501744-4.055975-27.193691a20.330043 20.330043 0 0 1 16.807909-8.902672c4.59182 0 8.912707 1.51522 12.50107 4.379087 60.681065 48.501101 95.484976 120.84234 95.484976 198.473804 0 76.363095-33.916854 147.97783-93.044568 196.484952a20.482569 20.482569 0 0 1-12.942591 4.644z" fill="" p-id="4575"></path></svg>