<?xml version="1.0" standalone="no"?><!DOCTYPE svg PUBLIC "-//W3C//DTD SVG 1.1//EN" "http://www.w3.org/Graphics/SVG/1.1/DTD/svg11.dtd"><svg class="icon" width="200px" height="200.00px" viewBox="0 0 1024 1024" version="1.1" xmlns="http://www.w3.org/2000/svg"><path d="M521.216 0c-18.944 0-38.4 1.024-56.832 3.072-45.568 5.12-89.088 16.384-130.56 32.768 0 0 339.968 335.872 348.672 348.672v-358.4c-10.24-3.072-19.968-6.144-30.72-9.728-41.984-10.752-85.504-16.384-130.56-16.384z" fill="#F95452" /><path d="M876.032 146.432c-13.824-13.824-27.648-26.112-42.496-37.888-36.352-28.672-74.752-51.712-115.712-69.12 0 0 2.56 477.696 0 493.056l253.44-253.44c-4.608-9.728-10.24-18.944-15.36-28.16-22.016-37.888-48.128-73.216-79.872-104.448z" fill="#6467F0" /><path d="M987.136 318.464s-335.872 339.968-348.672 348.672h358.4c3.072-10.24 6.144-19.968 9.728-30.72 11.264-41.472 17.408-84.992 17.408-130.048 0-18.944-1.024-38.4-3.072-56.832-6.144-46.08-16.896-90.112-33.792-131.072z" fill="#5283F0" /><path d="M488.448 704.512l253.44 253.44c9.728-4.608 18.944-10.24 28.672-15.36 37.376-21.504 72.192-47.616 104.448-79.872 13.824-13.824 26.112-27.648 37.888-42.496 28.672-36.352 51.712-74.752 69.12-115.712 0 0-478.208 2.56-493.568 0z" fill="#00B1FE" /><path d="M358.912 625.152v358.4c10.24 3.072 20.992 6.144 30.72 9.728 41.472 11.264 84.992 17.408 130.048 17.408 18.944 0 38.4-1.024 56.832-3.072 44.544-5.12 88.576-16.384 130.56-32.768 0-1.024-339.456-337.408-348.16-349.696z" fill="#65D020" /><path d="M323.072 476.16l-253.44 253.44c4.608 9.728 10.24 18.944 15.36 28.672 21.504 37.376 47.616 72.192 79.872 104.448 13.824 13.824 27.648 26.112 42.496 37.888 36.352 28.672 74.752 51.712 115.712 69.12 0-1.024-2.56-478.72 0-493.568z" fill="#9AD122" /><path d="M34.304 374.272c-11.264 41.472-16.896 84.992-16.896 130.048 0 18.944 1.024 38.4 3.072 56.832 5.12 45.568 16.384 89.088 32.768 130.56 0 0 335.872-339.968 348.16-348.672H44.032c-3.584 10.752-7.168 20.48-9.728 31.232z" fill="#FFC817" /><path d="M267.776 69.12C230.4 90.624 195.584 116.736 163.84 148.992c-13.824 13.824-26.112 28.16-37.888 42.496C97.28 227.84 74.24 266.24 56.832 307.2c0 0 478.208-2.56 493.056 0L295.936 54.272c-9.216 4.608-18.944 9.728-28.16 14.848z" fill="#FF7612" /></svg>