<?xml version="1.0" standalone="no"?><!DOCTYPE svg PUBLIC "-//W3C//DTD SVG 1.1//EN" "http://www.w3.org/Graphics/SVG/1.1/DTD/svg11.dtd"><svg t="1578737346743" class="icon" viewBox="0 0 1024 1024" version="1.1" xmlns="http://www.w3.org/2000/svg" p-id="3743" xmlns:xlink="http://www.w3.org/1999/xlink" width="128" height="128"><defs><style type="text/css"></style></defs><path d="M512 0C229.376 0 0 229.376 0 512s229.376 512 512 512 512-229.376 512-512S794.624 0 512 0z m0 962.56c-248.32 0-450.56-202.24-450.56-450.56s202.24-450.56 450.56-450.56 450.56 202.24 450.56 450.56-202.24 450.56-450.56 450.56z" p-id="3744" fill="#ffffff"></path><path d="M844.8 481.28h-302.08V179.2c0-16.896-13.824-30.72-30.72-30.72s-30.72 13.824-30.72 30.72v302.08H179.2c-16.896 0-30.72 13.824-30.72 30.72s13.824 30.72 30.72 30.72h302.08v302.08c0 16.896 13.824 30.72 30.72 30.72s30.72-13.824 30.72-30.72v-302.08h302.08c16.896 0 30.72-13.824 30.72-30.72s-13.824-30.72-30.72-30.72z" p-id="3745" fill="#ffffff"></path></svg>