<?xml version="1.0" standalone="no"?><!DOCTYPE svg PUBLIC "-//W3C//DTD SVG 1.1//EN" "http://www.w3.org/Graphics/SVG/1.1/DTD/svg11.dtd"><svg t="1579842950578" class="icon" viewBox="0 0 1024 1024" version="1.1" xmlns="http://www.w3.org/2000/svg" p-id="2080" xmlns:xlink="http://www.w3.org/1999/xlink" width="128" height="128"><defs><style type="text/css"></style></defs><path d="M508.714709 1008.736032c-66.918855 0-131.917078-13.141165-193.074038-39.019151-59.034156-24.968213-112.104245-60.752616-157.693978-106.342349-45.589733-45.589733-81.27305-98.558736-106.342349-157.693978-25.877986-61.15696-39.019151-126.155183-39.019151-193.074038s13.141165-131.917078 39.019151-193.074038c24.968213-59.034156 60.752616-112.104245 106.342349-157.693978 45.589733-45.589733 98.558736-81.27305 157.693978-106.342349 61.15696-25.877986 126.155183-39.019151 193.074038-39.019151s131.917078 13.141165 193.074038 39.019151c59.034156 24.968213 112.104245 60.752616 157.693978 106.342349 45.589733 45.589733 81.27305 98.558736 106.342349 157.693978 25.877986 61.15696 39.019151 126.155183 39.019151 193.074038s-13.141165 131.917078-39.019151 193.074038c-24.968213 59.034156-60.752616 112.104245-106.342349 157.693978-45.589733 45.589733-98.558736 81.27305-157.693978 106.342349C640.631787 995.695953 575.633564 1008.736032 508.714709 1008.736032zM508.714709 77.330701c-58.831984 0-115.844423 11.523791-169.419941 34.167029-51.857058 21.935637-98.457651 53.373346-138.386575 93.30227s-71.366634 86.529516-93.30227 138.386575c-22.744324 53.676604-34.167029 110.689042-34.167029 169.419941s11.523791 115.844423 34.167029 169.419941c21.935637 51.857058 53.373346 98.457651 93.30227 138.386575 40.03001 40.03001 86.529516 71.366634 138.386575 93.30227 53.676604 22.744324 110.689042 34.167029 169.419941 34.167029s115.844423-11.523791 169.419941-34.167029c51.857058-21.935637 98.457651-53.373346 138.386575-93.30227 40.03001-40.03001 71.366634-86.529516 93.30227-138.386575 22.744324-53.676604 34.167029-110.689042 34.167029-169.419941S932.567818 396.964265 909.823495 343.28766c-21.935637-51.857058-53.373346-98.457651-93.30227-138.386575-40.03001-40.03001-86.529516-71.366634-138.386575-93.30227C624.458045 88.854492 567.445607 77.330701 508.714709 77.330701z" p-id="2081"></path><path d="M738.685094 482.381836 539.040474 482.381836 539.040474 282.737216c0-16.780257-13.545508-30.325765-30.325765-30.325765s-30.325765 13.545508-30.325765 30.325765l0 199.64462L278.643238 482.381836c-16.780257 0-30.325765 13.545508-30.325765 30.325765s13.545508 30.325765 30.325765 30.325765l199.64462 0 0 199.64462c0 16.780257 13.545508 30.325765 30.325765 30.325765s30.325765-13.545508 30.325765-30.325765L538.939388 543.033366l199.64462 0c16.780257 0 30.325765-13.545508 30.325765-30.325765S755.364265 482.381836 738.685094 482.381836z" p-id="2082"></path></svg>