<?xml version="1.0" standalone="no"?><!DOCTYPE svg PUBLIC "-//W3C//DTD SVG 1.1//EN" "http://www.w3.org/Graphics/SVG/1.1/DTD/svg11.dtd"><svg t="1564247581703" class="icon" viewBox="0 0 1821 1024" version="1.1" xmlns="http://www.w3.org/2000/svg" p-id="5303" xmlns:xlink="http://www.w3.org/1999/xlink" width="533.49609375" height="300"><defs><style type="text/css"></style></defs><path d="M1261.356 570.897333c0 193.598667-157.484 351.084-351.084 351.084S559.194667 764.496 559.194667 570.897333c0-187.084 147.197333-339.994667 331.801333-350.089333v106.281333a9.821333 9.821333 0 0 0 4.88 8.458667 9.749333 9.749333 0 0 0 4.876 1.297333 9.748 9.748 0 0 0 4.874667-1.297333l253.406666-146.286667a9.816 9.816 0 0 0 4.88-8.453333 9.817333 9.817333 0 0 0-4.88-8.457333L905.626667 26.064a9.706667 9.706667 0 0 0-9.750667 0 9.833333 9.833333 0 0 0-4.88 8.458667v108.265333C663.381333 152.96 481.173333 340.802667 481.173333 570.897333c0 236.609333 192.494667 429.104 429.098667 429.104 236.609333 0 429.104-192.494667 429.104-429.104h-78.02z m0 0" p-id="5304"></path></svg>