<?xml version="1.0" standalone="no"?><!DOCTYPE svg PUBLIC "-//W3C//DTD SVG 1.1//EN" "http://www.w3.org/Graphics/SVG/1.1/DTD/svg11.dtd"><svg t="1563602383521" class="icon" viewBox="0 0 1024 1024" version="1.1" xmlns="http://www.w3.org/2000/svg" p-id="27457" xmlns:xlink="http://www.w3.org/1999/xlink" width="300" height="300"><defs><style type="text/css"></style></defs><path d="M944.999408 212.501109l-58.69992 68.799906s-50.599931 55.999923-56.699922 105.199857c-312.499573-94.199871-675.799076-1.999997-675.799076-1.999998s-10.599986-48.099934-24.299967-74.899897C116.000541 282.801013 83.000587 229.401086 77.000595 216.501104c-5.899992-12.899982 8.099989-22.29997 8.099989-22.29997S470.000057 0.601399 512 0.0014c42.099942-0.599999 419.999426 191.199739 430.999411 196.299732 10.999985 5.099993 1.999997 16.199978 1.999997 16.199977z m-351.999519-60.699917H431.100111v86.999882s-2.999996 40.299945 80.899889 74.899897c77.899893-33.799954 80.899889-76.899895 80.899889-76.899895l0.1-84.999884zM188.300443 532.200672c1.899997-28.799961 17.099977-57.299922 23.399968-68.199906-11.599984-11.399984-17.399976-18.799974-17.399977-18.799975 277.99962-106.199855 627.799142-14.79998 633.299135 0 0.1 0.599999-3.799995 5.899992-11.699984 14.099981 8.199989 20.699972 19.899973 72.8999 19.899972 72.8999s69.599905 34.199953 70.799904 127.499826c1.199998 93.299872-115.299842 145.699801-115.299843 145.699801s-53.699927 194.999733-279.199618 218.499701C284.000312 995.500039 232.900382 801.400304 232.900382 801.400304s-110.999848-39.099947-113.299846-139.599809c-0.499999-22.19997-8.699988-99.099865 68.699907-129.599823z m90.999875 210.399713S335.800241 934.700122 512 955.100094c159.299782-15.699979 224.599693-204.399721 224.599693-204.39972s129.099823-30.799958 91.099875-129.499823c-22.799969 21.099971-66.699909 11.899984-64.799911-24.299967 2.299997-41.099944-3.799995-71.299903-8.099989-86.899881-54.999925 37.299949-139.699809 76.499895-248.79966 74.799897-106.899854-1.699998-187.299744-39.999945-239.699672-75.999896-2.499997 8.999988-9.599987 38.599947-7.19999 86.099883-2.899996 58.29992-61.799916 36.89995-62.699915 28.399961-36.199951 94.199871 82.899887 119.299837 82.899887 119.299837z m0 0" fill="#1296db" p-id="27458"></path></svg>