<?xml version="1.0" standalone="no"?><!DOCTYPE svg PUBLIC "-//W3C//DTD SVG 1.1//EN" "http://www.w3.org/Graphics/SVG/1.1/DTD/svg11.dtd"><svg t="1573841098998" class="icon" viewBox="0 0 1024 1024" version="1.1" xmlns="http://www.w3.org/2000/svg" p-id="69129" xmlns:xlink="http://www.w3.org/1999/xlink" width="128" height="128"><defs><style type="text/css"></style></defs><path d="M464.372093 117.212279l-205.442977 210.443907a35.72093 35.72093 0 1 1-51.104744-49.914046L461.109581 18.265302a54.772093 54.772093 0 0 1 77.442977-0.928744l0.357209 0.333395 261.35814 259.691163a35.72093 35.72093 0 1 1-50.366512 50.676093L535.813953 115.307163v639.023628a35.72093 35.72093 0 0 1-71.44186 0V117.212279zM928.982326 539.147907a35.72093 35.72093 0 1 1 71.44186 0v306.580837a154.790698 154.790698 0 0 1-154.790698 154.790698H155.314605a154.790698 154.790698 0 0 1-154.790698-154.790698V540.481488a35.72093 35.72093 0 0 1 71.44186 0v305.27107a83.348837 83.348837 0 0 0 83.348838 83.348837H845.633488a83.348837 83.348837 0 0 0 83.348838-83.348837V539.147907z" p-id="69130" fill="#515151"></path></svg>