<?xml version="1.0" standalone="no"?><!DOCTYPE svg PUBLIC "-//W3C//DTD SVG 1.1//EN" "http://www.w3.org/Graphics/SVG/1.1/DTD/svg11.dtd"><svg t="1581577001743" class="icon" viewBox="0 0 1024 1024" version="1.1" xmlns="http://www.w3.org/2000/svg" p-id="29977" xmlns:xlink="http://www.w3.org/1999/xlink" width="128" height="128"><defs><style type="text/css"></style></defs><path d="M0 0h1024v1024H0z" fill-opacity="0" p-id="29978" fill="#000000"></path><path d="M429.44 960a96 96 0 0 0 67.84-28.16l433.28-433.28A96.64 96.64 0 0 0 960 423.04l-19.2-249.6a96 96 0 0 0-88.96-88.96L601.6 64a96 96 0 0 0-75.52 28.16L92.8 526.72a96.64 96.64 0 0 0 0 136.32l268.8 268.8a96 96 0 0 0 67.84 28.16zM593.92 103.68h4.48l249.6 19.2a57.6 57.6 0 0 1 53.76 53.76l19.2 249.6a58.24 58.24 0 0 1-16.64 45.44l-433.92 433.28a59.52 59.52 0 0 1-82.56 0l-268.8-268.8a58.24 58.24 0 0 1 0-82.56l433.92-432.64a57.6 57.6 0 0 1 40.96-17.28z m128 274.56a76.16 76.16 0 1 0-53.76-22.4 75.52 75.52 0 0 0 53.76 22.4z m0-114.56a38.4 38.4 0 0 1 26.88 64 39.04 39.04 0 0 1-53.76 0 38.4 38.4 0 0 1 26.88-64z" p-id="29979" fill="#000000"></path></svg>