<?xml version="1.0" standalone="no"?><!DOCTYPE svg PUBLIC "-//W3C//DTD SVG 1.1//EN" "http://www.w3.org/Graphics/SVG/1.1/DTD/svg11.dtd"><svg t="1582951951435" class="icon" viewBox="0 0 1024 1024" version="1.1" xmlns="http://www.w3.org/2000/svg" p-id="16084" xmlns:xlink="http://www.w3.org/1999/xlink" width="128" height="128"><defs><style type="text/css"></style></defs><path d="M512.729425 0.406795c-19.526137 0-38.715616 1.164274-57.708713 3.324493a506.922082 506.922082 0 0 0-132.68515 33.567561s345.242301 340.487014 354.388164 352.929315V27.381479c-10.24-3.661151-20.900822-6.663014-31.533589-9.398356A508.956055 508.956055 0 0 0 512.729425 0.364712V0.420822z" fill="#FA5452" p-id="16085"></path><path d="M873.177425 148.227507c-13.929205-13.859068-28.447562-26.329425-43.190357-38.407014a516.138082 516.138082 0 0 0-117.717917-69.744219s2.524932 483.776877 0 499.024658l257.711342-256.799562a522.24 522.24 0 0 0-96.789041-134.073863z" fill="#6467F0" p-id="16086"></path><path d="M986.448658 323.107068S644.867507 667.100932 632.284932 676.260822h364.249424c3.647123-10.282082 6.733151-20.844712 9.468493-31.379288a502.713863 502.713863 0 0 0 14.265863-189.187507 512.448877 512.448877 0 0 0-33.834082-132.558904z" fill="#5283F0" p-id="16087"></path><path d="M479.821151 714.317151L737.532493 971.116712a403.175452 403.175452 0 0 0 29.036712-15.612493 501.100712 501.100712 0 0 0 105.90685-80.896c13.718795-13.606575 26.511781-28.307288 38.561315-43.078137a501.395288 501.395288 0 0 0 69.912548-117.212931c-0.098192 0-485.586411 2.524932-501.128767 0z" fill="#00B1FE" p-id="16088"></path><path d="M347.598904 633.785863V996.646575c10.29611 3.647123 20.928877 6.648986 31.533589 9.398357a507.020274 507.020274 0 0 0 189.959014 14.22378 506.88 506.88 0 0 0 132.671123-33.567561S356.856986 646.214137 347.612932 633.757808z" fill="#66D020" p-id="16089"></path><path d="M311.366137 482.261918L53.682849 739.075507a381.685479 381.685479 0 0 0 15.654576 28.896438 504.607562 504.607562 0 0 0 81.120438 105.612274 508.703562 508.703562 0 0 0 160.908274 108.179288c0-0.364712-2.482849-484.141589 0-499.501589z" fill="#9AD122" p-id="16090"></path><path d="M18.025205 379.721644a500.553644 500.553644 0 0 0-14.307945 189.187507 494.64811 494.64811 0 0 0 33.735891 132.208219s341.202411-343.993863 354.149698-352.929315H27.507726c-3.661151 10.352219-6.803288 20.85874-9.510575 31.533589h0.028054z" fill="#FFC817" p-id="16091"></path><path d="M255.046137 70.431562a501.479452 501.479452 0 0 0-105.948932 80.896 548.611507 548.611507 0 0 0-38.505205 43.092164 501.212932 501.212932 0 0 0-69.996712 117.577644s485.488219-2.524932 501.142794 0L284.054795 55.183781c-9.805151 4.727233-19.526137 9.987507-29.008658 15.247781z" fill="#FF7612" p-id="16092"></path></svg>