<?xml version="1.0" standalone="no"?><!DOCTYPE svg PUBLIC "-//W3C//DTD SVG 1.1//EN" "http://www.w3.org/Graphics/SVG/1.1/DTD/svg11.dtd"><svg class="icon" width="200px" height="162.93px" viewBox="0 0 1257 1024" version="1.1" xmlns="http://www.w3.org/2000/svg"><path d="M472.324723 654.95695c0-191.134071 179.168512-346.371464 406.514145-346.371464h13.539976C852.388684 131.306273 661.254613 0 444.929889 0 200.265683 0 0 166.888069 0 377.859779c0 122.174662 66.755228 222.622386 177.908979 300.398524l-44.398524 134.455104 155.552276-78.091021a760.127921 760.127921 0 0 0 157.441574 22.356704c14.169742 0 28.0246 0 41.564576-1.889299l2.519065-2.833948A302.917589 302.917589 0 0 1 472.324723 654.95695z" fill="#6ECE46" /><path d="M1257.328413 656.531365c0-177.908979-177.908979-323.070111-377.859778-323.07011-211.601476 0-377.859779 145.161132-377.859779 323.07011s166.888069 323.070111 377.859779 323.070111a556.083641 556.083641 0 0 0 133.510455-22.356704L1133.579336 1024 1102.091021 913.161132c88.482165-67.384994 155.237392-157.441574 155.237392-256.629767z" fill="#6ECE46" /><path d="M611.817958 188.929889a52.585486 52.585486 0 0 1 55.734318 55.734318 52.585486 52.585486 0 0 1-55.734318 55.734317 62.97663 62.97663 0 0 1-66.755227-55.734317A62.97663 62.97663 0 0 1 611.817958 188.929889zM300.398524 300.398524a62.97663 62.97663 0 0 1-67.070111-55.734317A62.97663 62.97663 0 0 1 300.398524 188.929889a52.585486 52.585486 0 0 1 55.419434 55.734318 52.585486 52.585486 0 0 1-55.419434 55.734317zM755.719557 601.111931a47.862239 47.862239 0 0 1-44.398524-44.713407A48.177122 48.177122 0 0 1 755.719557 512a51.01107 51.01107 0 0 1 55.734318 44.398524A50.696187 50.696187 0 0 1 755.719557 601.111931zM1001.328413 601.111931a47.547355 47.547355 0 0 1-44.398524-44.713407 47.862239 47.862239 0 0 1 44.398524-44.398524 51.01107 51.01107 0 0 1 55.734318 44.398524 50.696187 50.696187 0 0 1-55.734318 44.713407z" fill="#FFFFFF" /></svg>