<?xml version="1.0" standalone="no"?><!DOCTYPE svg PUBLIC "-//W3C//DTD SVG 1.1//EN" "http://www.w3.org/Graphics/SVG/1.1/DTD/svg11.dtd"><svg t="1581596609895" class="icon" viewBox="0 0 1109 1024" version="1.1" xmlns="http://www.w3.org/2000/svg" p-id="41148" xmlns:xlink="http://www.w3.org/1999/xlink" width="138.625" height="128"><defs><style type="text/css"></style></defs><path d="M464.213333 136.533333H157.525333a68.266667 68.266667 0 0 0-68.181333 68.266667v682.666667a68.266667 68.266667 0 0 0 68.181333 68.266666H838.826667a68.266667 68.266667 0 0 0 68.096-68.266666V512a34.133333 34.133333 0 1 1 68.181333 0v375.466667c0 75.434667-61.013333 136.533333-136.277333 136.533333H157.610667A136.362667 136.362667 0 0 1 21.333333 887.466667v-682.666667C21.333333 129.365333 82.346667 68.266667 157.610667 68.266667h306.517333a34.133333 34.133333 0 0 1 0 68.266666z m493.056-48.298666a68.010667 68.010667 0 0 0-96.426666 0l-78.933334 79.189333 96.341334 96.597333 79.018666-79.189333a68.352 68.352 0 0 0 0-96.597333zM396.117333 557.397333L491.264 652.8l71.168-72.362667L830.037333 312.32 733.696 215.722667 396.117333 557.397333zM290.048 754.773333l152.32-54.442666L346.453333 604.16 290.133333 754.773333z m715.349333-521.728l-101.461333 102.997334c-0.341333 0.426667-0.170667 1.024-0.597333 1.450666-0.341333 0.426667-1.024 0.170667-1.365334 0.597334L495.530667 750.506667l-228.608 58.282666a26.794667 26.794667 0 0 1-32.426667-32.938666l59.733333-224.853334L812.8 40.021333a136.021333 136.021333 0 0 1 192.682667 0 136.704 136.704 0 0 1 0 193.024z" fill="#ffffff" p-id="41149"></path></svg>